<?xml version="1.0" standalone="no"?>
<!DOCTYPE svg PUBLIC "-//W3C//DTD SVG 20010904//EN"
 "http://www.w3.org/TR/2001/REC-SVG-20010904/DTD/svg10.dtd">
<svg version="1.0" xmlns="http://www.w3.org/2000/svg"
 width="512.000000pt" height="512.000000pt" viewBox="0 0 512.000000 512.000000"
 preserveAspectRatio="xMidYMid meet">

<g transform="translate(0.000000,512.000000) scale(0.100000,-0.100000)"
fill="#000000" stroke="none">
<path d="M2515 5020 c-198 -49 -370 -92 -382 -95 l-23 -5 0 -445 0 -445 -398
0 -398 0 -53 -170 -54 -170 -87 0 -86 0 -73 -232 c-39 -128 -74 -241 -77 -250
-5 -16 5 -18 110 -18 64 0 116 -3 116 -6 0 -16 60 -878 65 -935 l6 -66 -138
-6 c-157 -6 -240 -25 -356 -83 -251 -126 -435 -365 -477 -619 -7 -39 -14 -80
-16 -91 -2 -13 -14 -24 -30 -28 -14 -4 -50 -31 -79 -60 -55 -55 -85 -122 -85
-191 0 -48 25 -122 54 -160 14 -18 26 -36 26 -39 0 -3 -13 -25 -29 -48 -96
-141 -42 -337 109 -404 33 -15 39 -23 44 -58 11 -64 70 -176 123 -231 65 -68
134 -112 218 -138 70 -22 73 -22 875 -22 753 0 809 1 865 18 190 59 319 198
359 388 4 18 18 31 46 44 45 20 99 75 126 127 9 18 19 63 22 100 5 75 -10 130
-53 188 l-24 33 28 41 c15 22 34 58 41 79 16 51 9 152 -15 202 -24 49 -79 105
-126 128 -35 16 -37 20 -49 94 -55 344 -318 627 -662 714 -71 18 -124 22 -365
26 l-283 6 -1 26 c0 14 -15 235 -33 491 -18 256 -31 468 -29 473 2 4 571 7
1265 7 1004 0 1259 3 1256 13 -3 6 -38 119 -78 250 l-74 237 -86 0 -87 0 -54
170 -54 170 -397 0 -398 0 0 264 c0 244 1 265 18 270 9 2 109 26 222 51 223
52 262 66 307 119 41 46 56 95 51 171 -5 75 -37 131 -100 172 -34 23 -54 28
-112 30 -60 2 -125 -11 -431 -87z m475 -82 c40 -44 17 -119 -42 -133 -30 -7
-486 -113 -515 -120 l-23 -5 0 -325 0 -325 -75 0 -75 0 0 385 0 385 28 7 c361
91 615 151 644 152 26 1 43 -5 58 -21z m279 -1135 c13 -43 26 -86 28 -95 5
-17 -45 -18 -961 -18 -531 0 -966 2 -966 6 0 3 12 45 27 95 l27 89 911 0 911
0 23 -77z m288 -363 l30 -100 -1252 0 -1253 0 31 100 30 100 1192 0 1191 0 31
-100z m-1562 -1443 c204 -72 373 -226 446 -409 28 -69 49 -146 49 -180 l0 -28
-1070 0 -1070 0 0 23 c0 12 9 55 20 95 60 216 213 390 420 477 124 52 147 54
655 52 l470 -2 80 -28z m621 -783 c40 -19 74 -70 74 -110 0 -16 -9 -43 -20
-61 -41 -67 43 -63 -1252 -63 -1130 0 -1174 1 -1204 19 -31 19 -64 74 -64 108
0 33 36 86 71 105 32 17 89 18 1197 18 1048 0 1167 -2 1198 -16z m-1474 -485
c79 -55 143 -104 143 -109 0 -10 -163 -130 -177 -130 -4 0 -63 39 -130 87
-258 182 -333 236 -342 244 -6 5 71 9 177 9 l186 0 143 -101z m1088 97 c0 -11
-473 -337 -483 -333 -15 6 -437 304 -457 323 -12 12 55 14 463 14 262 0 477
-2 477 -4z m-1696 -126 l170 -120 -230 0 c-206 0 -232 2 -257 19 -77 51 -83
144 -12 199 22 18 41 22 94 22 l66 0 169 -120z m2110 89 c45 -39 55 -84 30
-136 -35 -69 -53 -74 -295 -71 l-214 3 165 117 c164 116 165 117 222 118 50 0
62 -4 92 -31z m-1193 -279 c11 -6 83 -56 160 -111 l141 -100 96 65 97 66 273
0 273 0 -6 -22 c-26 -87 -98 -173 -186 -220 l-44 -23 -817 -3 c-805 -2 -817
-2 -872 18 -74 28 -147 96 -185 172 -17 33 -28 64 -25 69 3 5 131 9 285 9
l280 0 82 -58 c45 -32 88 -61 94 -66 8 -4 63 28 145 86 140 98 181 127 186
127 2 1 12 -4 23 -9z"/>
<path d="M4560 2985 l0 -165 -225 0 -225 0 0 110 0 110 -225 0 -225 0 0 -110
0 -110 -75 0 -75 0 0 110 0 110 -225 0 -225 0 0 -425 0 -425 -90 0 c-86 0 -90
-1 -90 -22 0 -32 230 -2141 235 -2156 3 -9 189 -12 884 -12 l881 0 4 22 c3 13
55 486 116 1053 61 567 113 1047 116 1068 l6 37 -56 0 -56 0 0 485 0 485 -225
0 -225 0 0 -165z m300 -390 l0 -405 -75 0 -75 0 0 405 0 405 75 0 75 0 0 -405z
m-1501 -82 c0 -266 -4 -370 -11 -350 -9 26 -13 27 -74 27 l-64 0 0 350 0 350
75 0 75 0 -1 -377z m599 -148 c2 -286 0 -580 -3 -652 l-7 -133 -69 0 -69 0 0
655 0 656 73 -3 72 -3 3 -520z m-308 -245 l0 -540 -48 0 -47 0 -23 63 c-22 61
-22 70 -22 540 l0 477 70 0 70 0 0 -540z m608 3 l-3 -538 -72 -3 -73 -3 0 541
0 540 75 0 75 0 -2 -537z m301 155 l-1 -383 -56 -155 c-41 -111 -62 -156 -75
-158 -16 -3 -17 28 -17 537 l0 541 75 0 75 0 -1 -382z m-12 -1175 c-3 -16 -20
-166 -38 -335 l-33 -308 -478 0 c-376 0 -478 3 -478 13 0 6 -16 156 -35 331
-19 176 -35 321 -35 323 0 2 248 3 551 3 l552 0 -6 -27z"/>
</g>
</svg>
